<svg width="1836" height="296" viewBox="0 0 1836 296" fill="none" xmlns="http://www.w3.org/2000/svg">
<path d="M165.148 285.133L137.498 285.133L134.509 147.567L168.137 147.567L165.148 285.133Z" fill="url(#paint0_linear_1638_23512)"/>
<path d="M165.148 10L137.498 10L134.509 147.566L168.137 147.566L165.148 10Z" fill="url(#paint1_linear_1638_23512)"/>
<path d="M290 137.333L290 160.667L148 164L5.99999 160.667L5.99999 137.333L148 134L290 137.333Z" fill="url(#paint2_radial_1638_23512)"/>
<path d="M94.9422 35.0134L75.5958 53.5556L151.14 140.851L167.928 115.67L94.9422 35.0134Z" fill="url(#paint3_linear_1638_23512)"/>
<path d="M205.815 35.0134L225.161 53.5556L149.616 140.851L132.829 115.67L205.815 35.0134Z" fill="url(#paint4_linear_1638_23512)"/>
<path d="M94.9422 260.119L75.5958 241.576L151.14 154.281L167.928 179.462L94.9422 260.119Z" fill="url(#paint5_linear_1638_23512)"/>
<path d="M205.815 260.119L225.161 241.576L149.616 154.281L132.829 179.462L205.815 260.119Z" fill="url(#paint6_linear_1638_23512)"/>
<path d="M265.292 80.4155L272.007 105.816L151.136 144.209V117.348L265.292 80.4155Z" fill="#14E4A2"/>
<path d="M36.9866 80.4155L30.2715 105.816L151.143 144.209V117.348L36.9866 80.4155Z" fill="#14E4A2"/>
<path d="M265.3 214.717L272.015 189.317L151.143 150.924V177.784L265.3 214.717Z" fill="#14E4A2"/>
<path d="M36.9866 214.717L30.2715 189.317L151.143 150.924V177.784L36.9866 214.717Z" fill="#14E4A2"/>
<path d="M406.441 209.165C396.385 209.165 387.628 207.659 380.17 204.647C372.825 201.635 366.102 196.893 360 190.422L379.153 171.345C383.334 175.696 387.797 179.043 392.543 181.386C397.289 183.617 402.656 184.733 408.645 184.733C413.73 184.733 417.628 183.896 420.34 182.222C423.165 180.437 424.577 178.039 424.577 175.027C424.577 172.237 423.56 169.95 421.526 168.165C419.492 166.269 416.78 164.651 413.391 163.312C410.114 161.862 406.441 160.523 402.373 159.296C398.419 157.957 394.407 156.395 390.339 154.61C386.385 152.714 382.712 150.427 379.322 147.749C376.045 145.071 373.39 141.724 371.356 137.708C369.322 133.692 368.305 128.727 368.305 122.814C368.305 115.228 370.113 108.757 373.729 103.402C377.458 98.0469 382.599 93.9191 389.153 91.0184C395.707 88.1177 403.334 86.6674 412.035 86.6674C420.735 86.6674 428.758 88.1177 436.103 91.0184C443.448 93.9191 449.493 97.9354 454.239 103.067L434.916 121.978C431.3 118.407 427.628 115.73 423.899 113.945C420.17 112.16 416.102 111.267 411.696 111.267C407.515 111.267 404.238 111.993 401.865 113.443C399.492 114.893 398.306 116.957 398.306 119.635C398.306 122.312 399.323 124.488 401.357 126.161C403.39 127.835 406.046 129.341 409.323 130.68C412.713 131.907 416.385 133.19 420.34 134.529C424.408 135.867 428.419 137.429 432.374 139.214C436.329 140.999 439.945 143.286 443.222 146.076C446.611 148.865 449.323 152.379 451.357 156.618C453.391 160.858 454.408 165.99 454.408 172.014C454.408 183.84 450.171 192.988 441.696 199.459C433.334 205.93 421.583 209.165 406.441 209.165Z" fill="#16215B"/>
<path d="M466.392 207.324V88.6755H487.579L496.731 112.941V207.324H466.392ZM549.274 207.324L479.104 119.3L487.579 88.6755L557.919 176.7L549.274 207.324ZM549.274 207.324L541.478 182.39V89.0133L571.817 88.6755V207.324H549.274Z" fill="#16215B"/>
<path d="M648.267 209.5C639.001 209.5 630.47 207.938 622.673 204.814C614.877 201.69 608.04 197.339 602.165 191.761C596.402 186.183 591.882 179.656 588.605 172.182C585.328 164.595 583.69 156.451 583.69 147.749C583.69 139.047 585.272 131.014 588.435 123.651C591.712 116.176 596.232 109.65 601.995 104.071C607.758 98.4932 614.538 94.198 622.334 91.1857C630.131 88.0619 638.662 86.5 647.928 86.5C657.194 86.5 665.725 88.0619 673.521 91.1857C681.318 94.198 688.098 98.4932 693.861 104.071C699.624 109.65 704.087 116.176 707.251 123.651C710.528 131.126 712.166 139.214 712.166 147.916C712.166 156.618 710.528 164.707 707.251 172.182C704.087 179.656 699.624 186.239 693.861 191.929C688.098 197.507 681.318 201.858 673.521 204.982C665.838 207.994 657.42 209.5 648.267 209.5ZM647.928 182.724C654.708 182.724 660.583 181.274 665.555 178.373C670.527 175.473 674.369 171.401 677.081 166.157C679.793 160.914 681.149 154.778 681.149 147.749C681.149 142.617 680.358 137.931 678.776 133.692C677.307 129.452 675.103 125.827 672.165 122.814C669.228 119.69 665.725 117.292 661.657 115.618C657.589 113.945 653.013 113.108 647.928 113.108C641.148 113.108 635.272 114.559 630.301 117.459C625.329 120.248 621.487 124.265 618.775 129.508C616.063 134.752 614.707 140.832 614.707 147.749C614.707 153.104 615.442 157.957 616.91 162.308C618.492 166.548 620.752 170.229 623.69 173.353C626.628 176.365 630.131 178.708 634.199 180.382C638.267 181.944 642.843 182.724 647.928 182.724Z" fill="#16215B"/>
<path d="M749.473 207.324L711.337 94.7889L741.338 88.6755L768.796 180.047H755.745L782.864 88.6755H807.101L834.22 180.047H821.339L848.797 88.6755L878.628 88.6755L840.322 207.324H815.915L788.796 116.12H800.999L774.05 207.324H749.473Z" fill="#16215B"/>
<path d="M887.902 207.324V88.6755H918.242V207.324H887.902ZM911.97 207.324V181.553H969.937L966.841 207.324H911.97Z" fill="#16215B"/>
<path d="M980.68 207.324V88.6755H1011.02V207.324H980.68ZM1004.75 207.324V182.055H1069.83V207.324H1004.75ZM1004.75 159.129V134.529H1055.47L1049.96 159.129H1004.75ZM1004.75 113.945V88.6755H1068.82V113.945H1004.75Z" fill="#16215B"/>
<path d="M1102.58 207.489V181.504H1132.23C1139.21 181.504 1145.26 180.211 1150.37 177.624C1155.6 175.036 1159.62 171.212 1162.41 166.15C1165.2 160.976 1166.59 154.733 1166.59 147.421C1166.59 140.222 1165.14 134.148 1162.23 129.198C1159.44 124.136 1155.49 120.312 1150.37 117.725C1145.26 115.137 1139.21 113.844 1132.23 113.844H1101.19V87.8594H1132.41C1141.94 87.8594 1150.72 89.3217 1158.74 92.2464C1166.77 95.0586 1173.74 99.1081 1179.67 104.395C1185.6 109.682 1190.2 115.981 1193.45 123.293C1196.83 130.604 1198.51 138.703 1198.51 147.59C1198.51 156.589 1196.83 164.744 1193.45 172.056C1190.2 179.367 1185.6 185.666 1179.67 190.953C1173.74 196.24 1166.77 200.346 1158.74 203.271C1150.84 206.083 1142.17 207.489 1132.76 207.489H1102.58ZM1081.48 207.489V87.8594H1112.7V207.489H1081.48Z" fill="#16215B"/>
<path d="M1272.97 208.998C1263.81 208.998 1255.34 207.492 1247.54 204.48C1239.86 201.356 1233.08 197.005 1227.2 191.427C1221.44 185.848 1216.92 179.378 1213.64 172.014C1210.48 164.539 1208.9 156.451 1208.9 147.749C1208.9 138.935 1210.54 130.847 1213.81 123.484C1217.2 116.009 1221.89 109.538 1227.88 104.071C1233.87 98.4932 1240.82 94.198 1248.73 91.1857C1256.75 88.0619 1265.28 86.5 1274.32 86.5C1285.06 86.5 1294.77 88.3966 1303.47 92.1898C1312.18 95.8714 1319.24 101.003 1324.66 107.586L1304.32 127.667C1300.25 122.87 1295.79 119.3 1290.93 116.957C1286.07 114.503 1280.42 113.275 1273.98 113.275C1267.43 113.275 1261.55 114.726 1256.36 117.627C1251.27 120.416 1247.2 124.376 1244.15 129.508C1241.1 134.64 1239.58 140.665 1239.58 147.582C1239.58 154.499 1240.99 160.579 1243.81 165.822C1246.75 171.066 1250.71 175.138 1255.68 178.039C1260.76 180.939 1266.58 182.39 1273.14 182.39C1279.69 182.39 1285.23 181.163 1289.75 178.708C1294.38 176.254 1297.88 172.684 1300.25 167.998C1302.74 163.312 1303.98 157.734 1303.98 151.263L1324.49 164.316L1269.75 162.978V138.545H1334.49V143.063C1334.49 157.232 1331.89 169.225 1326.7 179.043C1321.5 188.861 1314.27 196.335 1305 201.467C1295.85 206.488 1285.17 208.998 1272.97 208.998Z" fill="#16215B"/>
<path d="M1345.51 207.157V88.5082H1375.85V207.157H1345.51ZM1369.58 207.157V181.888H1434.67L1434.32 207.157H1369.58ZM1369.58 158.961V134.361H1423.06L1417.55 158.961H1369.58ZM1369.58 113.778V88.5082H1433.65V113.778H1369.58Z" fill="#16215B"/>
<path d="M1461.3 206.129V195.084H1498.75C1506.54 195.084 1512.67 192.932 1517.13 188.627C1521.6 184.322 1523.83 178.941 1523.83 172.484C1523.83 168.292 1522.86 164.497 1520.91 161.098C1518.96 157.7 1516.16 155.038 1512.49 153.112C1508.94 151.073 1504.71 150.053 1499.78 150.053H1461.3V139.178H1497.89C1504.31 139.178 1509.34 137.478 1513.01 134.08C1516.79 130.681 1518.68 125.867 1518.68 119.636C1518.68 113.405 1516.67 108.591 1512.67 105.192C1508.66 101.794 1503.27 100.094 1496.52 100.094H1461.3V89.2188H1496.86C1504.19 89.2188 1510.43 90.5216 1515.59 93.1272C1520.74 95.7328 1524.63 99.2446 1527.27 103.663C1529.9 108.081 1531.22 113.065 1531.22 118.616C1531.22 125.187 1529.5 130.851 1526.06 135.609C1522.63 140.254 1517.59 143.822 1510.95 146.315L1512.15 142.236C1519.82 144.615 1525.78 148.524 1530.01 153.961C1534.37 159.399 1536.54 165.856 1536.54 173.333C1536.54 179.564 1535 185.172 1531.9 190.156C1528.93 195.027 1524.52 198.936 1518.68 201.881C1512.95 204.713 1506.02 206.129 1497.89 206.129H1461.3ZM1453.23 206.129V89.2188H1465.77V206.129H1453.23Z" fill="#16215B"/>
<path d="M1548.39 206.129L1596.83 89.2188H1606.28L1654.21 206.129H1640.64L1598.9 102.813H1603.88L1561.79 206.129H1548.39ZM1570.55 175.712V164.667H1632.39V175.712H1570.55Z" fill="#16215B"/>
<path d="M1670.97 206.129V89.2188H1683.51V206.129H1670.97ZM1679.22 206.129V194.744H1744.32V206.129H1679.22Z" fill="#16215B"/>
<path d="M1762.65 206.129V89.2188H1775.19V206.129H1762.65ZM1770.9 206.129V194.744H1836V206.129H1770.9Z" fill="#16215B"/>
<defs>
<linearGradient id="paint0_linear_1638_23512" x1="135.728" y1="288.311" x2="149.096" y2="189.257" gradientUnits="userSpaceOnUse">
<stop stop-color="#2F4CA5"/>
<stop offset="1" stop-color="#0A1427"/>
</linearGradient>
<linearGradient id="paint1_linear_1638_23512" x1="135.728" y1="6.82206" x2="149.096" y2="105.876" gradientUnits="userSpaceOnUse">
<stop stop-color="#2F4CA5"/>
<stop offset="1" stop-color="#0A1427"/>
</linearGradient>
<radialGradient id="paint2_radial_1638_23512" cx="0" cy="0" r="1" gradientUnits="userSpaceOnUse" gradientTransform="translate(148.299 148.806) rotate(177.293) scale(147.196 124.269)">
<stop stop-color="#2F4CA5"/>
<stop offset="1" stop-color="#0A1427"/>
</radialGradient>
<linearGradient id="paint3_linear_1638_23512" x1="93.5718" y1="40.8468" x2="136.758" y2="119.336" gradientUnits="userSpaceOnUse">
<stop stop-color="#2F4CA5"/>
<stop offset="1" stop-color="#0A1427"/>
</linearGradient>
<linearGradient id="paint4_linear_1638_23512" x1="233.747" y1="15.6169" x2="261.607" y2="57.3201" gradientUnits="userSpaceOnUse">
<stop stop-color="#2F4CA5"/>
<stop offset="1" stop-color="#0A1427"/>
</linearGradient>
<linearGradient id="paint5_linear_1638_23512" x1="93.5718" y1="254.285" x2="136.758" y2="175.796" gradientUnits="userSpaceOnUse">
<stop stop-color="#2F4CA5"/>
<stop offset="1" stop-color="#0A1427"/>
</linearGradient>
<linearGradient id="paint6_linear_1638_23512" x1="233.747" y1="279.515" x2="261.607" y2="237.812" gradientUnits="userSpaceOnUse">
<stop stop-color="#2F4CA5"/>
<stop offset="1" stop-color="#0A1427"/>
</linearGradient>
</defs>
</svg>
